<svg id="visual" viewBox="0 0 960 540" width="960" height="540" xmlns="http://www.w3.org/2000/svg" xmlns:xlink="http://www.w3.org/1999/xlink" version="1.1"><g fill="#FF6F61"><circle r="27" cx="534" cy="307"></circle><circle r="12" cx="611" cy="97"></circle><circle r="21" cx="313" cy="295"></circle><circle r="14" cx="245" cy="471"></circle><circle r="15" cx="374" cy="55"></circle><circle r="17" cx="389" cy="271"></circle><circle r="20" cx="879" cy="242"></circle><circle r="24" cx="324" cy="32"></circle><circle r="24" cx="892" cy="364"></circle><circle r="14" cx="118" cy="479"></circle><circle r="12" cx="141" cy="114"></circle><circle r="12" cx="643" cy="196"></circle><circle r="13" cx="547" cy="205"></circle><circle r="14" cx="754" cy="73"></circle><circle r="15" cx="481" cy="306"></circle><circle r="11" cx="427" cy="49"></circle><circle r="11" cx="661" cy="500"></circle><circle r="22" cx="426" cy="339"></circle><circle r="18" cx="873" cy="149"></circle><circle r="20" cx="135" cy="178"></circle><circle r="23" cx="120" cy="247"></circle><circle r="12" cx="793" cy="345"></circle><circle r="14" cx="295" cy="427"></circle><circle r="15" cx="563" cy="448"></circle><circle r="20" cx="198" cy="100"></circle></g></svg>