<?xml version="1.0" standalone="no"?>
<!DOCTYPE svg PUBLIC "-//W3C//DTD SVG 20010904//EN"
 "http://www.w3.org/TR/2001/REC-SVG-20010904/DTD/svg10.dtd">
<svg version="1.0" xmlns="http://www.w3.org/2000/svg"
 width="623.000000pt" height="623.000000pt" viewBox="0 0 623.000000 623.000000"
 preserveAspectRatio="xMidYMid meet">
<metadata>
Created by potrace 1.14, written by Peter Selinger 2001-2017
</metadata>
<g transform="translate(0.000000,623.000000) scale(0.100000,-0.100000)"
fill="#000000" stroke="none">
<path d="M1350 4742 c0 -6 -8 -13 -17 -16 -10 -4 -50 -36 -89 -74 -39 -37
-116 -107 -169 -157 -54 -49 -124 -115 -156 -145 -99 -95 -311 -294 -378 -356
-36 -32 -79 -73 -96 -90 -18 -18 -37 -29 -42 -25 -6 3 -10 62 -10 136 -1 72
-1 138 -2 147 -1 16 -14 18 -141 16 -77 -1 -145 -5 -151 -9 -14 -8 -19 -999
-5 -999 4 0 28 20 52 45 24 24 44 43 44 41 0 -2 45 41 100 95 55 54 100 96
100 94 0 -2 28 23 61 56 34 32 66 59 71 59 5 0 6 5 3 10 -3 6 -2 10 3 10 5 0
63 51 127 113 191 182 207 198 315 297 56 52 124 115 150 140 27 25 80 74 120
110 39 36 78 71 85 78 18 16 25 15 44 -3 56 -54 300 -290 470 -456 111 -108
201 -195 201 -194 0 1 26 -23 58 -54 32 -31 56 -59 54 -63 -2 -5 1 -8 6 -8 5
0 73 -63 151 -140 78 -77 144 -140 146 -140 5 0 32 -28 97 -97 26 -28 49 -48
52 -45 3 3 6 0 6 -6 0 -7 4 -12 8 -12 4 0 8 92 7 204 0 226 4 210 -74 280 -19
17 -39 36 -45 43 -6 7 -16 18 -23 25 -6 7 -70 69 -143 138 -72 69 -187 179
-254 245 -67 66 -150 146 -183 177 -33 31 -58 60 -55 63 3 3 0 5 -6 5 -6 0
-74 63 -152 140 -77 77 -142 140 -144 140 -2 0 -47 43 -100 96 -53 53 -96 92
-96 86z"/>
<path d="M1156 3808 c-98 -95 -284 -276 -412 -403 -129 -126 -234 -230 -234
-230 0 0 -94 -92 -210 -206 -120 -118 -210 -214 -211 -225 0 -10 -2 -295 -2
-632 -2 -575 -1 -613 16 -618 24 -8 1044 -7 1057 1 7 4 10 154 10 458 l-1 451
80 76 c43 41 114 107 157 145 42 39 97 88 121 111 l45 41 -103 101 c-56 56
-106 102 -110 102 -4 0 -26 -18 -48 -39 -23 -22 -41 -38 -41 -36 0 3 -15 -10
-33 -28 -18 -18 -79 -75 -136 -127 -249 -230 -241 -221 -242 -281 -1 -30 -2
-192 -3 -361 0 -168 -4 -310 -9 -314 -4 -4 -104 -8 -222 -9 -208 -1 -215 0
-222 20 -10 28 -10 95 0 95 5 0 5 5 1 11 -4 7 -7 172 -8 367 l-1 355 27 36
c15 20 98 104 184 186 86 83 212 205 281 273 69 67 129 122 134 122 4 0 11 9
14 20 3 11 10 20 14 20 4 0 69 61 145 135 75 74 143 135 151 135 7 0 121 -109
253 -242 298 -301 519 -528 514 -528 -2 0 10 -12 27 -26 17 -14 31 -34 31 -44
0 -9 -35 -49 -77 -88 -102 -92 -115 -104 -213 -192 -46 -41 -98 -88 -116 -105
-17 -16 -50 -46 -73 -66 -99 -87 -151 -141 -151 -158 0 -9 80 -96 178 -193 97
-97 233 -233 301 -302 87 -88 132 -126 148 -126 30 -1 391 -1 399 0 4 0 -40
47 -97 104 -57 57 -126 126 -152 155 -26 28 -52 51 -57 51 -4 0 -10 4 -12 10
-4 13 -267 278 -280 282 -9 3 53 68 152 158 19 18 62 58 96 89 77 71 144 131
224 201 35 30 90 80 123 111 l58 56 -241 244 c-132 134 -294 299 -360 365 -66
67 -122 119 -125 116 -3 -3 -5 2 -5 11 0 10 -7 17 -17 17 -9 0 -14 2 -11 5 2
3 -107 117 -242 255 -136 137 -245 252 -242 255 3 3 -6 5 -20 5 -18 0 -69 -43
-202 -172z"/>
<path d="M5400 3527 c0 -5 -4 -6 -9 -3 -5 3 -31 1 -57 -4 -27 -6 -60 -13 -74
-15 -28 -6 -37 -10 -127 -50 -35 -16 -63 -32 -63 -37 0 -4 -7 -8 -15 -8 -8 0
-15 -4 -15 -10 0 -5 -6 -10 -12 -10 -17 -1 -107 -94 -144 -150 -36 -54 -81
-153 -88 -195 -3 -16 -10 -44 -15 -62 -12 -40 -12 -176 0 -233 5 -25 11 -54
13 -65 5 -32 37 -107 63 -147 13 -21 21 -38 19 -38 -10 0 77 -94 136 -146 39
-35 146 -93 210 -114 303 -99 629 -16 823 212 11 13 19 26 17 31 -1 4 2 7 7 7
13 0 91 163 97 202 3 18 8 44 11 58 8 38 8 210 -1 250 -4 19 -9 40 -10 45 -36
164 -181 337 -346 413 -68 32 -169 61 -230 67 -95 9 -190 10 -190 2z m227
-255 c10 -5 38 -20 63 -32 91 -46 166 -147 191 -257 14 -64 12 -233 -4 -233
-4 0 -6 -3 -5 -7 4 -17 -21 -84 -43 -115 -33 -48 -107 -118 -124 -118 -8 0
-15 -4 -15 -10 0 -16 -131 -51 -195 -52 -133 -2 -225 32 -307 113 -81 81 -118
174 -118 299 0 107 10 152 53 238 24 47 109 132 133 132 8 0 14 5 14 12 0 6 3
8 7 5 3 -4 15 0 25 10 10 9 18 13 18 8 0 -4 7 -2 15 5 8 7 15 10 15 7 0 -2 15
-1 33 4 40 10 219 4 244 -9z"/>
<path d="M2909 3508 c-29 -10 -41 -48 -28 -84 3 -11 4 -23 1 -28 -8 -14 -6
-182 2 -195 4 -6 3 -11 -2 -11 -8 0 -6 -73 3 -97 2 -7 1 -13 -3 -13 -5 0 -6
-329 -1 -440 0 -8 -1 -34 -3 -57 -2 -24 0 -39 6 -36 5 4 6 1 2 -6 -10 -15 -14
-121 -5 -121 3 0 3 -17 -1 -38 -3 -21 -3 -47 0 -58 4 -10 4 -28 0 -39 -4 -11
-4 -30 1 -42 7 -20 13 -21 148 -21 123 0 141 2 142 17 0 9 1 87 1 174 1 87 5
160 10 163 8 5 156 8 249 5 21 -1 35 -13 65 -61 22 -33 42 -60 47 -60 4 0 7
-4 7 -9 0 -9 82 -129 135 -198 l25 -32 156 0 155 -1 -18 30 c-9 16 -21 30 -25
30 -4 0 -8 6 -8 13 -1 6 -14 28 -30 47 -17 19 -30 40 -30 46 0 7 -7 15 -16 18
-8 3 -12 10 -9 16 3 5 2 10 -3 10 -4 0 -30 32 -57 71 -27 39 -54 77 -60 83 -7
7 -15 21 -19 33 -5 16 0 24 27 36 18 9 54 36 80 60 26 24 47 41 47 39 0 -3 11
11 24 30 33 49 63 133 70 196 3 29 8 57 11 62 4 6 3 10 -2 10 -4 0 -8 20 -9
44 -1 49 -42 186 -55 186 -5 0 -9 6 -9 13 0 7 -11 23 -24 34 -13 12 -28 28
-32 36 -15 24 -116 85 -176 106 -57 20 -123 32 -182 35 -17 1 -37 5 -44 10 -6
4 -12 4 -12 -1 0 -8 -148 -8 -157 0 -2 3 -18 1 -34 -3 -16 -5 -29 -5 -29 0 0
5 -13 5 -28 0 -16 -4 -36 -4 -45 1 -10 6 -18 5 -22 -1 -4 -6 -11 -7 -17 -4
-15 9 -149 11 -155 1 -2 -4 -12 -3 -21 2 -10 5 -28 4 -43 -1z m647 -247 c31
-11 70 -35 90 -55 20 -20 33 -36 29 -36 -4 0 -2 -7 5 -15 17 -21 22 -156 7
-198 -15 -41 -57 -97 -74 -97 -7 0 -13 -5 -13 -11 0 -5 -4 -7 -10 -4 -5 3 -10
2 -10 -3 0 -5 -6 -9 -12 -9 -7 -1 -26 -5 -43 -11 -16 -5 -75 -9 -130 -10 -55
-1 -100 -2 -100 -3 0 -6 -47 -4 -51 3 -3 5 -11 5 -17 0 -7 -6 -21 -6 -34 -1
-21 8 -21 10 -20 236 l2 228 40 5 c90 11 285 0 341 -19z"/>
<path d="M4246 3508 c-12 -7 -14 -14 -6 -27 5 -10 6 -21 3 -25 -7 -7 -13
-1204 -5 -1223 3 -10 42 -13 148 -13 l144 0 1 38 c0 20 0 307 0 637 -1 507 -4
602 -16 611 -14 10 -91 11 -102 1 -3 -3 -15 -2 -27 2 -11 5 -30 5 -41 1 -11
-4 -34 -4 -51 0 -17 4 -39 3 -48 -2z"/>
<path d="M5245 1957 c-84 -28 -146 -96 -164 -179 -13 -58 -12 -90 6 -149 24
-79 99 -149 177 -165 81 -17 212 10 244 50 13 18 17 41 16 105 -1 84 -9 101
-44 101 -30 0 -38 -16 -38 -75 0 -102 4 -96 -64 -111 -46 -11 -114 0 -138 21
-9 8 -19 13 -22 10 -7 -7 -52 77 -55 105 -7 57 -1 97 21 140 13 25 28 44 35
43 6 -2 11 2 11 7 0 15 49 33 100 36 47 2 108 -17 126 -41 9 -12 16 -11 42 9
l32 23 -25 25 c-49 49 -179 72 -260 45z"/>
<path d="M5777 1956 c-68 -25 -98 -62 -102 -132 -3 -38 1 -48 34 -82 26 -26
53 -42 87 -51 27 -7 56 -16 64 -19 20 -7 21 -8 52 -16 62 -18 76 -88 21 -117
-39 -21 -130 -16 -188 10 -47 21 -50 21 -62 5 -23 -32 -15 -51 28 -68 154 -62
319 -18 336 89 15 94 -20 125 -202 183 -50 15 -63 24 -76 53 -17 34 -17 34 12
61 37 36 102 40 182 12 22 -8 41 -14 42 -14 3 0 25 60 25 67 0 2 -4 1 -10 -2
-5 -3 -10 -2 -10 4 0 13 -89 31 -148 31 -26 -1 -64 -7 -85 -14z"/>
<path d="M2885 1943 c-15 -26 -12 -450 3 -465 12 -12 263 -15 281 -3 5 3 12 1
16 -4 12 -21 35 2 35 34 l0 33 -120 1 c-66 0 -124 2 -128 5 -5 3 -8 92 -7 198
1 106 -1 199 -3 206 -6 19 -65 15 -77 -5z"/>
<path d="M3357 1953 c-4 -7 -3 -469 1 -483 3 -10 61 -5 71 5 12 13 17 87 7
103 -4 7 -3 12 3 12 6 0 7 11 3 28 -4 15 -6 38 -5 52 4 35 5 90 4 123 -1 15
-1 39 -2 55 -3 112 -1 107 -41 110 -20 2 -38 -1 -41 -5z"/>
<path d="M3576 1933 c4 -16 10 -32 14 -38 12 -15 160 -361 160 -373 0 -5 9
-21 20 -34 15 -20 27 -25 51 -22 33 4 59 20 59 36 0 10 47 125 75 183 32 68
64 145 59 145 -3 0 2 7 10 16 9 8 17 22 17 30 3 29 4 33 17 46 21 21 14 38
-17 38 -38 0 -61 -9 -61 -24 0 -7 -9 -31 -20 -54 -11 -22 -20 -46 -20 -52 0
-5 -5 -10 -11 -10 -5 0 -8 -4 -5 -8 3 -5 -8 -34 -23 -65 -16 -31 -27 -57 -25
-57 2 0 -5 -17 -16 -37 -11 -21 -20 -44 -20 -51 0 -9 -6 -12 -16 -8 -9 3 -18
6 -20 6 -2 0 -4 6 -4 12 0 7 -11 35 -24 63 -45 97 -59 130 -63 150 -2 11 -8
22 -13 23 -6 2 -10 9 -10 16 0 7 -9 31 -20 54 -19 39 -23 42 -60 42 -39 0 -40
-1 -34 -27z"/>
<path d="M4205 1943 c-7 -17 -7 -76 0 -115 2 -10 -1 -18 -6 -18 -6 0 -7 -5 -4
-10 4 -6 6 -41 5 -78 -2 -132 -1 -224 5 -241 5 -18 48 -23 71 -9 7 5 10 87 10
245 l-1 238 -36 3 c-28 2 -38 -1 -44 -15z"/>
<path d="M4483 1939 c3 -9 1 -22 -3 -29 -4 -7 -4 -26 0 -41 5 -16 6 -29 2 -29
-4 0 -7 -29 -7 -65 0 -36 4 -65 8 -65 5 0 5 -5 2 -10 -10 -16 -11 -131 -2
-137 4 -3 4 -10 0 -16 -10 -14 -10 -34 0 -63 6 -16 15 -20 42 -20 19 1 36 3
36 6 1 3 2 73 3 157 2 133 7 178 19 162 4 -5 141 -175 177 -219 15 -19 38 -45
50 -57 11 -13 17 -23 13 -23 -4 0 -3 -4 3 -10 15 -15 72 -19 82 -6 6 8 9 407
3 474 -1 7 -16 12 -41 12 -35 0 -40 -3 -41 -22 0 -13 0 -79 0 -148 0 -69 -2
-133 -5 -142 -5 -16 -8 -15 -27 6 -39 42 -62 70 -87 106 -13 19 -29 40 -35 45
-6 6 -29 33 -50 60 -75 94 -77 96 -113 93 -26 -2 -32 -6 -29 -19z"/>
</g>
</svg>
