<svg xmlns="http://www.w3.org/2000/svg" version="1.1" xmlns:xlink="http://www.w3.org/1999/xlink" xmlns:svgjs="http://svgjs.dev/svgjs" width="1440" height="560" preserveAspectRatio="none" viewBox="0 0 1440 560"><g mask="url(&quot;#SvgjsMask1195&quot;)" fill="none"><rect width="1440" height="560" x="0" y="0" fill="url(&quot;#SvgjsLinearGradient1196&quot;)"></rect><path d="M 0,1 C 96,35.8 288,164.6 480,175 C 672,185.4 768,60.4 960,53 C 1152,45.6 1344,121 1440,138L1440 560L0 560z" fill="rgba(196, 21, 37, 0.57)"></path><path d="M 0,267 C 144,279.8 432,340 720,331 C 1008,322 1296,243.8 1440,222L1440 560L0 560z" fill="rgba(157, 21, 33, 0.53)"></path><path d="M 0,548 C 144,517.8 432,408.6 720,397 C 1008,385.4 1296,471.4 1440,490L1440 560L0 560z" fill="rgba(245, 28, 39, 0.42)"></path></g><defs><mask id="SvgjsMask1195"><rect width="1440" height="560" fill="#ffffff"></rect></mask><linearGradient x1="15.28%" y1="-39.29%" x2="84.72%" y2="139.29%" gradientUnits="userSpaceOnUse" id="SvgjsLinearGradient1196"><stop stop-color="#0e2a47" offset="0"></stop><stop stop-color="rgba(0, 69, 158, 0)" offset="0"></stop></linearGradient></defs></svg>